<svg width="29" height="27" viewBox="0 0 29 27" fill="none" xmlns="http://www.w3.org/2000/svg">
<path d="M8.7 4.62356V6.37174H27.0667V9.83231L24.9219 15.9867H8.09173L5.67506 0.250977H0V1.99916H3.99161L6.40827 17.7349H26.3397L29 10.1012V4.62356H8.7ZM9.72612 19.4997C8.70097 19.5008 7.71815 19.8695 6.99326 20.525C6.26837 21.1804 5.86062 22.0691 5.85945 22.9961C5.85945 23.9234 6.26683 24.8127 6.99197 25.4684C7.71711 26.1241 8.70061 26.4925 9.72612 26.4925C10.7516 26.4925 11.7351 26.1241 12.4603 25.4684C13.1854 24.8127 13.5928 23.9234 13.5928 22.9961C13.5916 22.0691 13.1839 21.1804 12.459 20.525C11.7341 19.8695 10.7513 19.5008 9.72612 19.4997ZM9.72612 24.7443C9.34374 24.7443 8.96995 24.6418 8.65201 24.4497C8.33408 24.2576 8.08628 23.9845 7.93995 23.6651C7.79362 23.3457 7.75533 22.9942 7.82993 22.6551C7.90453 22.3159 8.08866 22.0044 8.35904 21.76C8.62942 21.5155 8.97391 21.349 9.34894 21.2815C9.72397 21.2141 10.1127 21.2487 10.466 21.381C10.8192 21.5133 11.1212 21.7374 11.3336 22.0249C11.5461 22.3124 11.6594 22.6503 11.6594 22.9961C11.6588 23.4596 11.455 23.9039 11.0925 24.2316C10.7301 24.5594 10.2387 24.7437 9.72612 24.7443ZM23.2594 19.4997C22.2343 19.5008 21.2515 19.8695 20.5266 20.525C19.8017 21.1804 19.394 22.0691 19.3928 22.9961C19.3928 23.9234 19.8002 24.8127 20.5253 25.4684C21.2504 26.1241 22.2339 26.4925 23.2594 26.4925C24.285 26.4925 25.2685 26.1241 25.9936 25.4684C26.7187 24.8127 27.1261 23.9234 27.1261 22.9961C27.125 22.0691 26.7172 21.1804 25.9923 20.525C25.2674 19.8695 24.2846 19.5008 23.2594 19.4997ZM23.2594 24.7443C22.8771 24.7443 22.5033 24.6418 22.1853 24.4497C21.8674 24.2576 21.6196 23.9845 21.4733 23.6651C21.327 23.3457 21.2887 22.9942 21.3633 22.6551C21.4379 22.3159 21.622 22.0044 21.8924 21.76C22.1628 21.5155 22.5072 21.349 22.8823 21.2815C23.2573 21.2141 23.646 21.2487 23.9993 21.381C24.3526 21.5133 24.6545 21.7374 24.867 22.0249C25.0794 22.3124 25.1928 22.6503 25.1928 22.9961C25.1922 23.4596 24.9883 23.9039 24.6259 24.2316C24.2634 24.5594 23.772 24.7437 23.2594 24.7443Z" fill="white"/>
</svg>
