<svg width="68" height="60" viewBox="0 0 68 60" fill="none" xmlns="http://www.w3.org/2000/svg">
<mask id="path-1-inside-1_1075_3" fill="white">
<path d="M35.0246 0.650394C34.7105 0.649833 34.4003 0.719725 34.1169 0.854922C33.8334 0.99012 33.5838 1.18718 33.3866 1.43159L33.0128 1.70879C25.7678 -0.534006 17.5022 1.11239 11.7482 6.65639C9.33862 8.94281 7.54609 11.8012 6.53718 14.966C5.52827 18.1308 5.33571 21.4993 5.97741 24.7584C5.90609 24.8213 5.83607 24.8858 5.76741 24.9516L2.49561 28.1016C1.8627 28.702 1.35868 29.425 1.01425 30.2265C0.669816 31.028 0.492188 31.8912 0.492188 32.7636C0.492188 33.636 0.669816 34.4992 1.01425 35.3007C1.35868 36.1022 1.8627 36.8252 2.49561 37.4256C4.16721 39.0384 6.4856 39.6432 8.6402 39.24C8.9048 40.4538 9.52221 41.6088 10.5008 42.5496C11.7902 43.7928 13.466 44.4354 15.1544 44.4816C15.2006 46.107 15.8684 47.7198 17.1578 48.963C18.4472 50.2062 20.1272 50.853 21.8156 50.895C21.8576 52.5204 22.5296 54.1374 23.819 55.3806C25.0534 56.5521 26.6704 57.2367 28.3708 57.3077C30.0711 57.3788 31.7396 56.8314 33.0674 55.767L34.9028 57.531C37.5908 60.1224 41.9504 60.1224 44.6384 57.531C45.9236 56.2962 46.5914 54.6918 46.6502 53.0706C48.3766 53.0261 50.0242 52.3386 51.2702 51.1428C52.5554 49.9038 53.2232 48.2994 53.2736 46.6782C54.9806 46.6183 56.6057 45.9321 57.839 44.7504C58.8596 43.7718 59.4896 42.558 59.7332 41.2896C60.8143 41.4792 61.9248 41.4122 62.9753 41.0942C64.0257 40.7761 64.9868 40.2158 65.7812 39.4584C66.4148 38.8579 66.9193 38.1347 67.2642 37.3328C67.609 36.5309 67.7868 35.6672 67.7868 34.7943C67.7868 33.9214 67.609 33.0577 67.2642 32.2558C66.9193 31.4539 66.4148 30.7306 65.7812 30.1302L62.7572 27.2196L63.3746 24.9096C64.6235 20.187 63.9911 15.164 61.6106 10.8984C58.0994 4.57319 51.287 0.667194 43.9202 0.667194H38.7542C38.5318 0.656169 38.3091 0.650567 38.0864 0.650394H35.0246ZM45.3272 16.2576L55.4282 25.989L55.4408 25.9974L62.753 33.045C62.9905 33.2702 63.1797 33.5415 63.309 33.8423C63.4382 34.143 63.5049 34.4669 63.5049 34.7943C63.5049 35.1217 63.4382 35.4456 63.309 35.7463C63.1797 36.0471 62.9905 36.3183 62.753 36.5436C62.2623 37.0082 61.6123 37.2672 60.9365 37.2672C60.2607 37.2672 59.6107 37.0082 59.12 36.5436L53.5718 31.2012C53.1651 30.811 52.6234 30.5932 52.0598 30.5932C51.4962 30.5932 50.9545 30.811 50.5478 31.2012L50.489 31.2516C50.291 31.4392 50.1333 31.6652 50.0255 31.9157C49.9177 32.1663 49.8621 32.4362 49.8621 32.709C49.8621 32.9818 49.9177 33.2517 50.0255 33.5022C50.1333 33.7528 50.291 33.9788 50.489 34.1664L54.815 38.3328C55.823 39.2988 55.823 40.8696 54.815 41.8398C54.3689 42.2625 53.7896 42.5167 53.1765 42.5589C52.5634 42.601 51.9547 42.4285 51.455 42.0708C51.0379 41.7695 50.5285 41.6238 50.0152 41.6591C49.5018 41.6944 49.0171 41.9084 48.6452 42.264C48.2818 42.6115 48.0623 43.083 48.0304 43.5849C47.9985 44.0867 48.1565 44.5822 48.473 44.973C48.85 45.4452 49.0359 46.0419 48.9939 46.6447C48.9519 47.2475 48.6851 47.8126 48.2462 48.228C47.7938 48.657 47.2044 48.9125 46.582 48.9494C45.9596 48.9863 45.3441 48.8022 44.8442 48.4296C44.4292 48.1183 43.9176 47.9636 43.3997 47.9928C42.8817 48.022 42.3908 48.2332 42.0134 48.5892C41.6452 48.9362 41.4219 49.4097 41.3884 49.9145C41.3549 50.4194 41.5137 50.9182 41.8328 51.3108C42.2187 51.7894 42.4101 52.3958 42.3688 53.0091C42.3275 53.6225 42.0567 54.1978 41.6102 54.6204C41.1131 55.0922 40.4539 55.3552 39.7685 55.3552C39.0831 55.3552 38.4239 55.0922 37.9268 54.6204L36.1082 52.869L36.7718 52.2306C37.4054 51.6301 37.91 50.9069 38.2548 50.105C38.5996 49.3031 38.7774 48.4394 38.7774 47.5665C38.7774 46.6936 38.5996 45.8299 38.2548 45.028C37.91 44.2261 37.4054 43.5028 36.7718 42.9024C35.5166 41.6994 33.8564 41.0101 32.1182 40.9704C32.0672 39.2697 31.3473 37.6578 30.1148 36.4848C28.8579 35.2824 27.196 34.5945 25.457 34.557C25.406 32.8563 24.6861 31.2444 23.4536 30.0714C22.6467 29.3034 21.6685 28.7387 20.6 28.4239C19.5315 28.1091 18.4034 28.0533 17.309 28.2612C17.0322 26.9974 16.3843 25.8449 15.4484 24.9516C14.731 24.267 13.8761 23.7429 12.9405 23.4141C12.0049 23.0853 11.01 22.9594 10.022 23.0448C9.69112 20.5837 9.94878 18.0791 10.7738 15.7369C11.5988 13.3947 12.9677 11.2816 14.768 9.57119C16.5872 7.83319 18.7683 6.51917 21.1551 5.72334C23.5419 4.9275 26.0752 4.66956 28.5734 4.96799L22.4624 9.46199C21.6805 10.0301 21.0219 10.7508 20.5263 11.5806C20.0307 12.4103 19.7084 13.3319 19.5788 14.2897C19.4493 15.2475 19.5152 16.2216 19.7726 17.1532C20.03 18.0848 20.4735 18.9546 21.0764 19.71C22.2957 21.2388 24.0574 22.2386 25.9952 22.5015C27.9329 22.7643 29.8973 22.2699 31.4798 21.1212L38.099 16.2618H45.323L45.3272 16.2576ZM24.9488 12.843L35.8352 4.85039H38.0864C38.2923 4.8493 38.4982 4.8549 38.7038 4.86719H43.9202C49.817 4.86719 55.1972 7.99619 57.9398 12.9396C59.7962 16.2828 60.2834 20.1678 59.3132 23.8344L59.3006 23.8764L47.7086 12.675C47.3157 12.2809 46.7825 12.0588 46.226 12.0576H37.406C36.9602 12.0584 36.5263 12.2011 36.167 12.465L28.9934 17.7318C28.2888 18.2364 27.418 18.4526 26.5591 18.3363C25.7003 18.2199 24.9184 17.7798 24.3734 17.106C24.1194 16.7931 23.9322 16.4316 23.8232 16.0436C23.7142 15.6557 23.6858 15.2495 23.7397 14.8501C23.7936 14.4508 23.9287 14.0667 24.1366 13.7215C24.3446 13.3763 24.621 13.0773 24.9488 12.843ZM26.8052 49.005L26.8472 48.963L30.1148 45.813L30.1526 45.7794C30.646 45.3308 31.2908 45.0853 31.9576 45.0924C32.6245 45.0994 33.264 45.3583 33.7478 45.8172C33.9853 46.0424 34.1745 46.3137 34.3038 46.6145C34.433 46.9152 34.4997 47.2391 34.4997 47.5665C34.4997 47.8938 34.433 48.2178 34.3038 48.5185C34.1745 48.8193 33.9853 49.0905 33.7478 49.3158L30.476 52.4658C29.9853 52.9304 29.3353 53.1894 28.6595 53.1894C27.9837 53.1894 27.3337 52.9304 26.843 52.4658C26.6086 52.2439 26.4211 51.9772 26.2917 51.6815C26.1623 51.3857 26.0936 51.067 26.0897 50.7443C26.0858 50.4215 26.1467 50.1012 26.2689 49.8025C26.3911 49.5037 26.572 49.2325 26.801 49.005H26.8052ZM27.1286 42.8646L27.0866 42.9024L23.819 46.0524L23.777 46.0902C23.2833 46.537 22.6391 46.781 21.9733 46.7732C21.3074 46.7654 20.6691 46.5065 20.186 46.0482C19.9511 45.8253 19.7636 45.5574 19.6345 45.2605C19.5054 44.9635 19.4375 44.6436 19.4347 44.3198C19.432 43.9961 19.4945 43.675 19.6185 43.376C19.7425 43.0769 19.9255 42.8058 20.1566 42.579L20.186 42.5496L23.4536 39.3996L23.483 39.3702C23.9758 38.918 24.6218 38.6696 25.2906 38.6751C25.9594 38.6805 26.6012 38.9394 27.0866 39.3996C27.3217 39.6216 27.5097 39.8885 27.6395 40.1846C27.7692 40.4807 27.8381 40.7999 27.8421 41.1232C27.846 41.4465 27.7848 41.7672 27.6623 42.0664C27.5397 42.3655 27.3582 42.637 27.1286 42.8646ZM20.4296 36.4848L17.1578 39.6348L17.1284 39.6642C16.6356 40.1164 15.9896 40.3648 15.3208 40.3593C14.652 40.3539 14.0102 40.0949 13.5248 39.6348C13.2873 39.4095 13.0981 39.1383 12.9688 38.8375C12.8396 38.5368 12.7729 38.2128 12.7729 37.8855C12.7729 37.5581 12.8396 37.2342 12.9688 36.9335C13.0981 36.6327 13.2873 36.3615 13.5248 36.1362L16.7924 32.9862C17.2833 32.5203 17.9342 32.2606 18.611 32.2606C19.2878 32.2606 19.9387 32.5203 20.4296 32.9862C20.6651 33.2091 20.8533 33.4773 20.9827 33.7746C21.1122 34.072 21.1803 34.3924 21.1831 34.7166C21.1858 35.0409 21.1231 35.3624 20.9987 35.6619C20.8743 35.9614 20.6907 36.2327 20.459 36.4596L20.4296 36.4848ZM12.4244 31.365L9.15681 34.515C8.66641 34.9818 8.01527 35.2422 7.3382 35.2422C6.66114 35.2422 6.01 34.9818 5.51961 34.515C5.28142 34.2897 5.09169 34.0182 4.96202 33.717C4.83235 33.4159 4.76547 33.0915 4.76547 32.7636C4.76547 32.4357 4.83235 32.1113 4.96202 31.8102C5.09169 31.509 5.28142 31.2375 5.51961 31.0122L8.7914 27.8622C9.28207 27.3975 9.93214 27.1386 10.6079 27.1386C11.2837 27.1386 11.9337 27.3975 12.4244 27.8622C12.6626 28.0875 12.8523 28.359 12.982 28.6602C13.1117 28.9613 13.1785 29.2857 13.1785 29.6136C13.1785 29.9415 13.1117 30.2659 12.982 30.567C12.8523 30.8682 12.6626 31.1397 12.4244 31.365Z"/>
</mask>
<path d="M35.0246 0.650394C34.7105 0.649833 34.4003 0.719725 34.1169 0.854922C33.8334 0.99012 33.5838 1.18718 33.3866 1.43159L33.0128 1.70879C25.7678 -0.534006 17.5022 1.11239 11.7482 6.65639C9.33862 8.94281 7.54609 11.8012 6.53718 14.966C5.52827 18.1308 5.33571 21.4993 5.97741 24.7584C5.90609 24.8213 5.83607 24.8858 5.76741 24.9516L2.49561 28.1016C1.8627 28.702 1.35868 29.425 1.01425 30.2265C0.669816 31.028 0.492188 31.8912 0.492188 32.7636C0.492188 33.636 0.669816 34.4992 1.01425 35.3007C1.35868 36.1022 1.8627 36.8252 2.49561 37.4256C4.16721 39.0384 6.4856 39.6432 8.6402 39.24C8.9048 40.4538 9.52221 41.6088 10.5008 42.5496C11.7902 43.7928 13.466 44.4354 15.1544 44.4816C15.2006 46.107 15.8684 47.7198 17.1578 48.963C18.4472 50.2062 20.1272 50.853 21.8156 50.895C21.8576 52.5204 22.5296 54.1374 23.819 55.3806C25.0534 56.5521 26.6704 57.2367 28.3708 57.3077C30.0711 57.3788 31.7396 56.8314 33.0674 55.767L34.9028 57.531C37.5908 60.1224 41.9504 60.1224 44.6384 57.531C45.9236 56.2962 46.5914 54.6918 46.6502 53.0706C48.3766 53.0261 50.0242 52.3386 51.2702 51.1428C52.5554 49.9038 53.2232 48.2994 53.2736 46.6782C54.9806 46.6183 56.6057 45.9321 57.839 44.7504C58.8596 43.7718 59.4896 42.558 59.7332 41.2896C60.8143 41.4792 61.9248 41.4122 62.9753 41.0942C64.0257 40.7761 64.9868 40.2158 65.7812 39.4584C66.4148 38.8579 66.9193 38.1347 67.2642 37.3328C67.609 36.5309 67.7868 35.6672 67.7868 34.7943C67.7868 33.9214 67.609 33.0577 67.2642 32.2558C66.9193 31.4539 66.4148 30.7306 65.7812 30.1302L62.7572 27.2196L63.3746 24.9096C64.6235 20.187 63.9911 15.164 61.6106 10.8984C58.0994 4.57319 51.287 0.667194 43.9202 0.667194H38.7542C38.5318 0.656169 38.3091 0.650567 38.0864 0.650394H35.0246ZM45.3272 16.2576L55.4282 25.989L55.4408 25.9974L62.753 33.045C62.9905 33.2702 63.1797 33.5415 63.309 33.8423C63.4382 34.143 63.5049 34.4669 63.5049 34.7943C63.5049 35.1217 63.4382 35.4456 63.309 35.7463C63.1797 36.0471 62.9905 36.3183 62.753 36.5436C62.2623 37.0082 61.6123 37.2672 60.9365 37.2672C60.2607 37.2672 59.6107 37.0082 59.12 36.5436L53.5718 31.2012C53.1651 30.811 52.6234 30.5932 52.0598 30.5932C51.4962 30.5932 50.9545 30.811 50.5478 31.2012L50.489 31.2516C50.291 31.4392 50.1333 31.6652 50.0255 31.9157C49.9177 32.1663 49.8621 32.4362 49.8621 32.709C49.8621 32.9818 49.9177 33.2517 50.0255 33.5022C50.1333 33.7528 50.291 33.9788 50.489 34.1664L54.815 38.3328C55.823 39.2988 55.823 40.8696 54.815 41.8398C54.3689 42.2625 53.7896 42.5167 53.1765 42.5589C52.5634 42.601 51.9547 42.4285 51.455 42.0708C51.0379 41.7695 50.5285 41.6238 50.0152 41.6591C49.5018 41.6944 49.0171 41.9084 48.6452 42.264C48.2818 42.6115 48.0623 43.083 48.0304 43.5849C47.9985 44.0867 48.1565 44.5822 48.473 44.973C48.85 45.4452 49.0359 46.0419 48.9939 46.6447C48.9519 47.2475 48.6851 47.8126 48.2462 48.228C47.7938 48.657 47.2044 48.9125 46.582 48.9494C45.9596 48.9863 45.3441 48.8022 44.8442 48.4296C44.4292 48.1183 43.9176 47.9636 43.3997 47.9928C42.8817 48.022 42.3908 48.2332 42.0134 48.5892C41.6452 48.9362 41.4219 49.4097 41.3884 49.9145C41.3549 50.4194 41.5137 50.9182 41.8328 51.3108C42.2187 51.7894 42.4101 52.3958 42.3688 53.0091C42.3275 53.6225 42.0567 54.1978 41.6102 54.6204C41.1131 55.0922 40.4539 55.3552 39.7685 55.3552C39.0831 55.3552 38.4239 55.0922 37.9268 54.6204L36.1082 52.869L36.7718 52.2306C37.4054 51.6301 37.91 50.9069 38.2548 50.105C38.5996 49.3031 38.7774 48.4394 38.7774 47.5665C38.7774 46.6936 38.5996 45.8299 38.2548 45.028C37.91 44.2261 37.4054 43.5028 36.7718 42.9024C35.5166 41.6994 33.8564 41.0101 32.1182 40.9704C32.0672 39.2697 31.3473 37.6578 30.1148 36.4848C28.8579 35.2824 27.196 34.5945 25.457 34.557C25.406 32.8563 24.6861 31.2444 23.4536 30.0714C22.6467 29.3034 21.6685 28.7387 20.6 28.4239C19.5315 28.1091 18.4034 28.0533 17.309 28.2612C17.0322 26.9974 16.3843 25.8449 15.4484 24.9516C14.731 24.267 13.8761 23.7429 12.9405 23.4141C12.0049 23.0853 11.01 22.9594 10.022 23.0448C9.69112 20.5837 9.94878 18.0791 10.7738 15.7369C11.5988 13.3947 12.9677 11.2816 14.768 9.57119C16.5872 7.83319 18.7683 6.51917 21.1551 5.72334C23.5419 4.9275 26.0752 4.66956 28.5734 4.96799L22.4624 9.46199C21.6805 10.0301 21.0219 10.7508 20.5263 11.5806C20.0307 12.4103 19.7084 13.3319 19.5788 14.2897C19.4493 15.2475 19.5152 16.2216 19.7726 17.1532C20.03 18.0848 20.4735 18.9546 21.0764 19.71C22.2957 21.2388 24.0574 22.2386 25.9952 22.5015C27.9329 22.7643 29.8973 22.2699 31.4798 21.1212L38.099 16.2618H45.323L45.3272 16.2576ZM24.9488 12.843L35.8352 4.85039H38.0864C38.2923 4.8493 38.4982 4.8549 38.7038 4.86719H43.9202C49.817 4.86719 55.1972 7.99619 57.9398 12.9396C59.7962 16.2828 60.2834 20.1678 59.3132 23.8344L59.3006 23.8764L47.7086 12.675C47.3157 12.2809 46.7825 12.0588 46.226 12.0576H37.406C36.9602 12.0584 36.5263 12.2011 36.167 12.465L28.9934 17.7318C28.2888 18.2364 27.418 18.4526 26.5591 18.3363C25.7003 18.2199 24.9184 17.7798 24.3734 17.106C24.1194 16.7931 23.9322 16.4316 23.8232 16.0436C23.7142 15.6557 23.6858 15.2495 23.7397 14.8501C23.7936 14.4508 23.9287 14.0667 24.1366 13.7215C24.3446 13.3763 24.621 13.0773 24.9488 12.843ZM26.8052 49.005L26.8472 48.963L30.1148 45.813L30.1526 45.7794C30.646 45.3308 31.2908 45.0853 31.9576 45.0924C32.6245 45.0994 33.264 45.3583 33.7478 45.8172C33.9853 46.0424 34.1745 46.3137 34.3038 46.6145C34.433 46.9152 34.4997 47.2391 34.4997 47.5665C34.4997 47.8938 34.433 48.2178 34.3038 48.5185C34.1745 48.8193 33.9853 49.0905 33.7478 49.3158L30.476 52.4658C29.9853 52.9304 29.3353 53.1894 28.6595 53.1894C27.9837 53.1894 27.3337 52.9304 26.843 52.4658C26.6086 52.2439 26.4211 51.9772 26.2917 51.6815C26.1623 51.3857 26.0936 51.067 26.0897 50.7443C26.0858 50.4215 26.1467 50.1012 26.2689 49.8025C26.3911 49.5037 26.572 49.2325 26.801 49.005H26.8052ZM27.1286 42.8646L27.0866 42.9024L23.819 46.0524L23.777 46.0902C23.2833 46.537 22.6391 46.781 21.9733 46.7732C21.3074 46.7654 20.6691 46.5065 20.186 46.0482C19.9511 45.8253 19.7636 45.5574 19.6345 45.2605C19.5054 44.9635 19.4375 44.6436 19.4347 44.3198C19.432 43.9961 19.4945 43.675 19.6185 43.376C19.7425 43.0769 19.9255 42.8058 20.1566 42.579L20.186 42.5496L23.4536 39.3996L23.483 39.3702C23.9758 38.918 24.6218 38.6696 25.2906 38.6751C25.9594 38.6805 26.6012 38.9394 27.0866 39.3996C27.3217 39.6216 27.5097 39.8885 27.6395 40.1846C27.7692 40.4807 27.8381 40.7999 27.8421 41.1232C27.846 41.4465 27.7848 41.7672 27.6623 42.0664C27.5397 42.3655 27.3582 42.637 27.1286 42.8646ZM20.4296 36.4848L17.1578 39.6348L17.1284 39.6642C16.6356 40.1164 15.9896 40.3648 15.3208 40.3593C14.652 40.3539 14.0102 40.0949 13.5248 39.6348C13.2873 39.4095 13.0981 39.1383 12.9688 38.8375C12.8396 38.5368 12.7729 38.2128 12.7729 37.8855C12.7729 37.5581 12.8396 37.2342 12.9688 36.9335C13.0981 36.6327 13.2873 36.3615 13.5248 36.1362L16.7924 32.9862C17.2833 32.5203 17.9342 32.2606 18.611 32.2606C19.2878 32.2606 19.9387 32.5203 20.4296 32.9862C20.6651 33.2091 20.8533 33.4773 20.9827 33.7746C21.1122 34.072 21.1803 34.3924 21.1831 34.7166C21.1858 35.0409 21.1231 35.3624 20.9987 35.6619C20.8743 35.9614 20.6907 36.2327 20.459 36.4596L20.4296 36.4848ZM12.4244 31.365L9.15681 34.515C8.66641 34.9818 8.01527 35.2422 7.3382 35.2422C6.66114 35.2422 6.01 34.9818 5.51961 34.515C5.28142 34.2897 5.09169 34.0182 4.96202 33.717C4.83235 33.4159 4.76547 33.0915 4.76547 32.7636C4.76547 32.4357 4.83235 32.1113 4.96202 31.8102C5.09169 31.509 5.28142 31.2375 5.51961 31.0122L8.7914 27.8622C9.28207 27.3975 9.93214 27.1386 10.6079 27.1386C11.2837 27.1386 11.9337 27.3975 12.4244 27.8622C12.6626 28.0875 12.8523 28.359 12.982 28.6602C13.1117 28.9613 13.1785 29.2857 13.1785 29.6136C13.1785 29.9415 13.1117 30.2659 12.982 30.567C12.8523 30.8682 12.6626 31.1397 12.4244 31.365Z" stroke="white" stroke-width="2" mask="url(#path-1-inside-1_1075_3)"/>
</svg>
